# AST/ASF file generated using VICON BodyLanguage
# -----------------------------------------------
:version 1.10
:name VICON
:units
  mass 1.0
  length 0.45
  angle deg
:documentation
   .ast/.asf automatically generated from VICON data using
   VICON BodyBuilder and BodyLanguage model FoxedUp or BRILLIANT.MOD
:root
   order TX TY TZ RX RY RZ
   axis XYZ
   position 0 0 0  
   orientation 0 0 0 
:bonedata
  begin
     id 1 
     name lhipjoint
     direction 0.54267 -0.795011 0.271047 
     length 2.39899 
     axis 0 0 0  XYZ
  end
  begin
     id 2 
     name lfemur
     direction 0.34202 -0.939693 0  
     length 7.49701  
     axis 0 0 20  XYZ
    dof rx ry rz
    limits (-160.0 20.0)
           (-70.0 70.0)
           (-60.0 70.0)
  end
  begin
     id 3 
     name ltibia
     direction 0.34202 -0.939693 0   
     length 8.1668   
     axis 0 0 20   XYZ
    dof rx
    limits (-10.0 170.0)
  end
  begin
     id 4 
     name lfoot
     direction 0.0736283 -0.202292 0.976554   
     length 2.13544   
     axis -90 7.62852e-016 20   XYZ
    dof rx rz
    limits (-45.0 90.0)
           (-70.0 20.0)
  end
  begin
     id 5 
     name ltoes
     direction 1.53557e-011 -4.22024e-011 1   
     length 1.07411   
     axis -90 7.62852e-016 20   XYZ
    dof rx
    limits (-90.0 20.0)
  end
  begin
     id 6 
     name rhipjoint
     direction -0.538061 -0.797813 0.272002   
     length 2.39057  
     axis 0 0 0  XYZ 
  end
  begin
     id 7 
     name rfemur
     direction -0.34202 -0.939693 0   
     length 7.50152   
     axis 0 0 -20   XYZ
    dof rx ry rz
    limits (-160.0 20.0)
           (-70.0 70.0)
           (-70.0 60.0)
  end
  begin
     id 8 
     name rtibia
     direction -0.34202 -0.939693 0   
     length 8.05793   
     axis 0 0 -20   XYZ
    dof rx
    limits (-10.0 170.0)
 end
 begin
     id 9 
     name rfoot
     direction -0.0765195 -0.210236 0.974652   
     length 2.28698  
     axis -90 -7.62852e-016 -20   XYZ
    dof rx rz
    limits (-45.0 90.0)
           (-20.0 70.0)
  end
  begin
     id 10 
     name rtoes
     direction -1.53542e-011 -4.21847e-011 1   
     length 1.14762   
     axis -90 -7.62852e-016 -20   XYZ
    dof rx
    limits (-90.0 20.0)
  end
  begin
     id 11 
     name lowerback
     direction -0.0217239 0.996592 -0.0795765   
     length 2.08176   
     axis 0 0 0   XYZ
    dof rx ry rz
    limits (-20.0 45.0)
           (-30.0 30.0)
           (-30.0 30.0)
  end
  begin
     id 12 
     name upperback
     direction -0.00563773 0.999651 -0.0258155   
     length 2.08898   
     axis 0 0 0   XYZ
    dof rx ry rz
    limits (-20.0 45.0)
           (-30.0 30.0)
           (-30.0 30.0)
  end
  begin
     id 13 
     name thorax
     direction 0.0032706 0.999923 0.0119599   
     length 2.0968   
     axis 0 0 0   XYZ
    dof rx ry rz
    limits (-20.0 45.0)
           (-30.0 30.0)
           (-30.0 30.0)
  end
  begin
     id 14 
     name lowerneck
     direction -0.0285886 0.99568 0.0883427   
     length 1.81272   
     axis 0 0 0   XYZ
    dof rx ry rz
    limits (-20.0 45.0)
           (-30.0 30.0)
           (-30.0 30.0)
  end
  begin
     id 15 
     name upperneck
     direction 0.0807535 0.97985 -0.18268   
     length 1.82518   
     axis 0 0 0   XYZ
    dof rx ry rz
    limits (-20.0 45.0)
           (-30.0 30.0)
           (-30.0 30.0)
  end
  begin
     id 16
     name head
     direction 0.0236605 0.997053 -0.0729767  
     length 1.84443  
     axis 0 0 0   XYZ
    dof rx ry rz
    limits (-20.0 45.0)
           (-30.0 30.0)
           (-30.0 30.0)
  end
  begin
     id 17 
     name lclavicle
     direction 0.918986 0.39378 -0.0200683  
     length 3.27822  
     axis 0 0 0   XYZ
    dof ry rz
    limits (-20.0 10.0)
           (0.0 20.0)
  end
  begin
     id 18 
     name lhumerus
     direction 1 -4.4897e-011 2.09544e-027   
     length 5.5568   
     axis 180 -30 -90   XYZ
    dof rx ry rz
    limits (-60.0 90.0)
           (-90.0 90.0)
           (-90.0 90.0)
  end
  begin
     id 19
     name lradius
     direction 1 -4.48957e-011 -1.27696e-026   
     length 3.63979   
     axis 180 -30 -90   XYZ
    dof rx
    limits (-10.0 170.0)
  end
  begin
     id 20
     name lwrist
     direction 1 -4.49001e-011 -1.49001e-026   
     length 1.8199   
     axis 9.0955e-015 90 90   XYZ
    dof ry
    limits (-180.0 0.0)
 end
  begin
     id 21 
     name lhand
     direction 1 -4.48709e-011 -2.9758e-026   
     length 0.569419   
     axis 1.90115e-014 90 90   XYZ
    dof rx rz
    limits (-90.0 90.0)
           (-45.0 45.0)
  end
  begin
     id 22 
     name lfingers
     direction 1 -4.49175e-011 -5.96505e-026   
     length 0.45908   
     axis 3.80223e-014 90 90   XYZ
    dof rx
    limits (0.0 90.0)
  end
  begin
     id 23
     name lthumb
     direction 0.707107 -6.34864e-011 0.707107   
     length 0.65915   
     axis -90 45 -3.84942e-014   XYZ
    dof rx rz
    limits (-45.0 45.0)
           (-45.0 45.0)
  end
  begin
     id 24 
     name rclavicle
     direction -0.911913 0.396426 -0.106115   
     length 3.46301  
     axis 0 0 0   XYZ 
    dof ry rz
    limits (-10.0 20.0)
           (-20.0 0.0)
  end
  begin
     id 25 
     name rhumerus
     direction -1 -4.48965e-011 7.78516e-028  
     length 5.34339   
     axis 180 30 90   XYZ
    dof rx ry rz
    limits (-90.0 60.0)
           (-90.0 90.0)
           (-90.0 90.0)
  end
  begin
     id 26 
     name rradius
     direction -1 -4.48948e-011 -5.79823e-027   
     length 3.65101   
     axis 180 30 90   XYZ
    dof rx
    limits (-10.0 170.0)
  end
  begin
     id 27 
     name rwrist
     direction -1 -4.48995e-011 -1.48996e-026   
     length 1.8255   
     axis 9.0955e-015 -90 -90   XYZ
    dof ry
    limits (-180.0 0.0)
  end
  begin
     id 28
     name rhand
     direction -1 -4.48957e-011 -2.97937e-026   
     length 0.694249   
     axis 1.90115e-014 -90 -90   XYZ
    dof rx rz
    limits (-90.0 90.0)
           (-45.0 45.0)
  end
  begin
     id 29
     name rfingers
     direction -1 -4.4898e-011 -5.95943e-026   
     length 0.559721   
     axis 3.80223e-014 -90 -90   XYZ
    dof rx
    limits (0.0 90.0)
  end
  begin
     id 30
     name rthumb
     direction -0.707107 -6.34969e-011 0.707107   
     length 0.803651   
     axis -90 -45 3.84942e-014   XYZ
    dof rx rz
    limits (-45.0 45.0)
           (-45.0 45.0)
  end
:hierarchy
  begin
    root lhipjoint rhipjoint lowerback
    lhipjoint lfemur
    lfemur ltibia
    ltibia lfoot
    lfoot ltoes
    rhipjoint rfemur
    rfemur rtibia
    rtibia rfoot
    rfoot rtoes
    lowerback upperback
    upperback thorax
    thorax lowerneck lclavicle rclavicle
    lowerneck upperneck
    upperneck head
    lclavicle lhumerus
    lhumerus lradius
    lradius lwrist
    lwrist lhand lthumb
    lhand lfingers
    rclavicle rhumerus
    rhumerus rradius
    rradius rwrist
    rwrist rhand rthumb
    rhand rfingers
  end

#!OML:ASF H:\Terrain\Walking\May29\JustinRory\rory.ASF
:FULLY-SPECIFIED
:DEGREES
705
root 17.4667 10.3968 1.41116 -383.865 -76.108 365.613
lowerback 39.8161 1.67928 0.141241
upperback 15.8615 0.11145 -0.628772
thorax -1.66298 -0.725169 -0.748463
lowerneck -9.33627 -8.67723 -4.58663
upperneck 20.8894 -13.7095 9.7196
head 9.09155 -5.97382 2.49764
rclavicle 4.08999e-014 -2.60408e-014
rhumerus 29.0703 -4.72498 -85.5979
rradius 84.01
rwrist 3.00048
rhand -8.37923 23.7105
rfingers 7.12502
rthumb 17.5439 -5.51793
lclavicle 4.08999e-014 -2.60408e-014
lhumerus 13.7121 -19.4978 45.2105
lradius 96.5258
lwrist 9.34223
lhand -2.05838 24.0811
lfingers 7.12502
lthumb 23.6174 -307.349
rfemur -73.8623 -10.195 18.3549
rtibia 76.6736
rfoot 18.37 1.50852
rtoes 7.27934
lfemur -69.5063 12.2443 -6.71154
ltibia 68.3378
lfoot 27.0492 -3.71109
ltoes 0.669445
706
root 17.4434 10.3943 1.40614 -383.919 -76.2192 365.913
lowerback 39.6984 1.58643 -1.16713
upperback 15.5589 -0.408032 -0.0894455
thorax -1.96507 -1.06759 0.67541
lowerneck -8.8577 -8.18003 -6.25429
upperneck 21.0341 -12.6897 9.43276
head 9.0546 -5.66433 2.81832
rclavicle 2.43511e-015 1.51573e-014
rhumerus 28.104 -3.2385 -87.9268
rradius 84.7457
rwrist 5.56324
rhand -4.78194 24.8452
rfingers 7.12502
rthumb 21.0029 -4.03755
lclavicle 2.43511e-015 1.51573e-014
lhumerus 9.58639 -17.8048 47.6194
lradius 98.0407
lwrist 8.50671
lhand -2.05391 24.2816
lfingers 7.12502
lthumb 23.6217 -307.149
rfemur -74.2145 -9.9673 18.3557
rtibia 76.8959
rfoot 18.198 1.60487
rtoes 6.37688
lfemur -69.8367 12.6167 -6.788
ltibia 68.4603
lfoot 26.9286 -4.4205
ltoes -1.38231
707
root 17.4289 10.3944 1.40201 -384.283 -76.2347 366.491
lowerback 39.5754 1.63364 -1.9221
upperback 15.4774 -0.595605 0.133376
thorax -2.00931 -1.20576 1.36387
lowerneck -8.7387 -8.0304 -6.76704
upperneck 20.9683 -12.3267 9.18427
head 8.99264 -5.56095 2.86827
rclavicle 2.13694e-014 -1.00883e-014
rhumerus 26.9863 -0.804109 -84.7227
rradius 85.6651
rwrist 3.77076
rhand -4.73887 22.7769
rfingers 7.12502
rthumb 21.0443 -6.10126
lclavicle 2.13694e-014 -1.00883e-014
lhumerus 7.0896 -16.7902 49.0787
lradius 99.4493
lwrist 7.73086
lhand -1.64791 25.2386
lfingers 7.12502
lthumb 24.0111 -306.243
rfemur -74.5568 -9.80339 18.2059
rtibia 77.1848
rfoot 18.1231 1.28453
rtoes 7.51498
lfemur -70.0726 12.7894 -6.94789
ltibia 68.5615
lfoot 26.6755 -4.95795
ltoes -2.63774
708
root 17.4241 10.3975 1.40323 -383.887 -76.3221 366.203
lowerback 39.5765 1.60704 -1.92483
upperback 15.4643 -0.63079 0.122907
thorax -2.02311 -1.22268 1.36669
lowerneck -8.61865 -8.1362 -6.69268
upperneck 20.6474 -12.4362 9.13219
head 8.86193 -5.62008 2.83069
rclavicle -1.19768e-014 6.85807e-015
rhumerus 26.0843 -0.737236 -85.904
rradius 86.1591
rwrist 5.09625
rhand -3.17885 22.8303
rfingers 7.12502
rthumb 22.5423 -5.87371
lclavicle -1.19768e-014 6.85807e-015
lhumerus 5.43737 -16.2496 50.13
lradius 100.656
lwrist 6.87348
lhand -1.3879 25.6186
lfingers 7.12502
lthumb 24.2604 -305.896
rfemur -74.8209 -9.72201 18.3174
rtibia 77.5612
rfoot 17.9531 1.09286
rtoes 8.44702
lfemur -70.1561 12.8539 -6.87203
ltibia 68.6008
lfoot 26.5994 -4.91857
ltoes -2.39585
709
root 17.4078 10.3888 1.41827 -383.557 -76.4591 365.969
lowerback 39.4837 1.46378 -1.44803
upperback 15.5085 -0.651331 -0.123829
thorax -1.95097 -1.19693 0.867137
lowerneck -8.43351 -8.33194 -6.42432
upperneck 20.3425 -12.7373 9.19507
head 8.73753 -5.74757 2.78004
rclavicle -3.17062e-014 4.37326e-015
rhumerus 25.0937 -0.905746 -87.1752
rradius 86.6383
rwrist 6.32079
rhand -1.94371 22.8801
rfingers 7.12502
rthumb 23.7274 -5.6752
lclavicle -3.17062e-014 4.37326e-015
lhumerus 4.07354 -15.8924 51.0853
lradius 101.842
lwrist 6.14775
lhand -1.2957 25.1498
lfingers 7.12502
lthumb 24.3487 -306.377
rfemur -74.9473 -9.69635 18.435
rtibia 77.613
rfoot 17.9511 0.927227
rtoes 9.44023
lfemur -70.2728 12.9547 -6.84178
ltibia 68.7104
lfoot 26.472 -5.36011
ltoes -3.87106
710
root 17.399 10.3895 1.42384 -384.207 -76.4317 366.833
lowerback 39.403 1.59158 -1.11919
upperback 15.5651 -0.393426 -0.462985
thorax -1.87169 -1.03278 0.250978
lowerneck -8.51253 -8.8122 -5.50275
upperneck 20.0478 -13.4918 9.1111
head 8.64836 -6.04353 2.51102
rclavicle 2.64384e-014 -2.60408e-014
rhumerus 24.0483 -1.82242 -88.4066
rradius 87.1974
rwrist 7.39002
rhand -0.728006 22.4986
rfingers 7.12502
rthumb 24.8929 -5.90048
lclavicle 2.64384e-014 -2.60408e-014
lhumerus 3.32079 -16.13 51.666
lradius 103.041
lwrist 5.53703
lhand -1.7166 25.1093
lfingers 7.12502
lthumb 23.9452 -306.364
rfemur -75.2935 -9.77832 18.3302
rtibia 77.8069
rfoot 17.8458 0.923998
rtoes 10.3829
lfemur -70.3999 12.9099 -7.09332
ltibia 68.7447
lfoot 26.2303 -5.64637
ltoes -5.89027
711
root 17.3756 10.3857 1.42949 -384.772 -76.3744 367.669
lowerback 39.5795 2.03156 -1.00313
upperback 15.4892 0.189175 -0.598852
thorax -2.0116 -0.724029 -0.15042
lowerneck -8.9535 -9.54311 -4.15927
upperneck 19.8726 -14.6024 8.74771
head 8.63136 -6.48575 2.02671
rclavicle -5.1684e-015 -1.32192e-014
rhumerus 22.8975 -3.25934 -89.2116
rradius 87.7472
rwrist 8.60304
rhand 0.461281 22.0608
rfingers 7.12502
rthumb 26.0321 -6.17568
lclavicle -5.1684e-015 -1.32192e-014
lhumerus 2.86872 -16.8815 52.2042
lradius 104.205
lwrist 5.00073
lhand -2.23239 25.5441
lfingers 7.12502
lthumb 23.4505 -305.865
rfemur -75.505 -9.88038 18.2345
rtibia 77.6373
rfoot 17.8671 1.58401
rtoes 8.6654
lfemur -70.676 12.8303 -7.24103
ltibia 68.8852
lfoot 26.0621 -5.25971
ltoes -5.47535
712
root 17.3651 10.3932 1.43256 -384.474 -76.3667 367.522
lowerback 39.5876 2.22167 -0.715601
upperback 15.4791 0.533244 -0.607287
thorax -2.02222 -0.535252 -0.426041
lowerneck -9.44672 -10.0798 -3.78196
upperneck 20.0579 -15.4102 8.68363
head 8.80938 -6.81417 1.81805
rclavicle -1.84373e-014 -4.37326e-015
rhumerus 21.7782 -4.08954 -89.6978
rradius 88.1426
rwrist 9.96743
rhand 1.64271 22.0661
rfingers 7.12502
rthumb 27.1628 -5.99891
lclavicle -1.84373e-014 -4.37326e-015
lhumerus 1.84847 -17.2599 53.1957
lradius 105.353
lwrist 4.14816
lhand -2.53466 25.6482
lfingers 7.12502
lthumb 23.1605 -305.724
rfemur -75.6241 -9.97033 18.3124
rtibia 77.6623
rfoot 17.8643 1.32456
rtoes 9.92197
lfemur -70.8087 12.6381 -7.06838
ltibia 68.9647
lfoot 25.9426 -4.70803
ltoes -3.67195
713
root 17.3577 10.3998 1.4339 -383.497 -76.4433 366.682
lowerback 39.2898 2.16389 -0.373027
upperback 15.567 0.592228 -0.608106
thorax -1.83047 -0.487771 -0.623857
lowerneck -9.57464 -10.411 -4.40797
upperneck 20.0875 -15.9172 9.31787
head 8.98989 -7.02802 2.04301
rclavicle 2.00276e-014 -1.08338e-014
rhumerus 20.7452 -4.17981 -90.2102
rradius 88.3842
rwrist 11.4735
rhand 2.73345 22.1593
rfingers 7.12502
rthumb 28.2058 -5.73827
lclavicle 2.00276e-014 -1.08338e-014
lhumerus 0.343383 -17.0478 54.498
lradius 106.392
lwrist 2.7226
lhand -2.70968 25.6926
lfingers 7.12502
lthumb 22.9926 -305.659
rfemur -75.8208 -9.98662 18.5305
rtibia 77.7554
rfoot 17.9036 0.4509
rtoes 13.3392
lfemur -70.9795 12.5838 -6.78605
ltibia 69.0714
lfoot 25.8218 -4.68159
ltoes -3.32541
714
root 17.3434 10.3958 1.43541 -383.226 -76.5701 366.7
lowerback 38.9688 2.20635 -0.470608
upperback 15.5609 0.624987 -0.63944
thorax -1.73984 -0.469768 -0.616958
lowerneck -9.15212 -10.6886 -4.72609
upperneck 19.5378 -16.3093 9.86442
head 8.83332 -7.22068 2.24652
rclavicle -4.65653e-014 3.20043e-014
rhumerus 19.6227 -3.90862 -90.7635
rradius 88.5773
rwrist 12.9023
rhand 4.32662 22.0674
rfingers 7.12502
rthumb 29.7275 -5.56892
lclavicle -4.65653e-014 3.20043e-014
lhumerus -1.43176 -16.6489 55.8784
lradius 107.394
lwrist 1.30312
lhand -2.83376 25.914
lfingers 7.12502
lthumb 22.8735 -305.423
rfemur -76.4084 -10.2428 18.9848
rtibia 78.0492
rfoot 17.7599 1.04926
rtoes 11.7428
lfemur -71.2638 12.8708 -6.82243
ltibia 69.1789
lfoot 25.832 -4.81931
ltoes -2.8011
715
root 17.321 10.38 1.4444 -382.715 -76.8137 366.326
lowerback 38.8506 2.17104 -0.431012
upperback 15.5486 0.590882 -0.746159
thorax -1.71597 -0.478874 -0.737583
lowerneck -8.70095 -10.944 -4.04242
upperneck 18.933 -16.5933 9.44411
head 8.47015 -7.38663 2.01031
rclavicle -1.75924e-014 2.98177e-016
rhumerus 18.4123 -3.3282 -91.3064
rradius 88.8013
rwrist 13.8705
rhand 5.75393 21.3165
rfingers 7.12502
rthumb 31.0888 -6.068
lclavicle -1.75924e-014 2.98177e-016
lhumerus -3.37595 -16.2329 57.1625
lradius 108.482
lwrist -0.0216754
lhand -3.62936 26.0424
lfingers 7.12502
lthumb 22.1098 -305.202
rfemur -76.3621 -9.26133 18.7058
rtibia 77.9504
rfoot 17.7418 1.31192
rtoes 7.11049
lfemur -71.4738 13.2393 -6.70037
ltibia 69.3752
lfoot 25.859 -5.10462
ltoes -2.75231
